<svg id="Layer_1" xmlns="http://www.w3.org/2000/svg" viewBox="0 0 796 207">
  <defs>
    <style>
      .cls-1{fill:#11141e}.cls-1,.cls-2,.cls-3{stroke-width:0}.cls-2{fill:#151a2c}.cls-3{fill:#212137}
    </style>
  </defs>
  <path class="cls-2" d="M0 0h796v207H0z"/>
  <path class="cls-2" d="M739.73 0h35v35h-35zM0 0h35v35H0z"/>
  <path class="cls-3" d="M0 36h35v35H0zM107.45 36.5h35v35h-35zM213.49 37h35v35h-35zM249.02 72.5h35v35h-35zM249.02 107.5h35v35h-35zM213.49 144h35v35h-35zM389.77 1h35v35h-35zM459.74 37h35v35h-35zM354.51 72.5h35v35h-35zM389.77 109h35v35h-35zM71.69 37h35v35h-35zM72.23 72.5h35v35h-35zM142.54 145.5h35v35h-35zM0 144h35v35H0zM529.81 37h35v35h-35z"/>
  <path class="cls-3" d="M529.81 70.5h35v35h-35zM599.77 1.5h35v35h-35z"/>
  <path class="cls-3" d="M564.81 0h35v35h-35zM599.77 109h35v35h-35z"/>
  <path class="cls-3" d="M564.81 109h35v35h-35zM529.81 144.5h35v35h-35zM669.73 144.5h35v35h-35zM107.45 109h35v35h-35z"/>
  <path class="cls-1" d="M143.06 73.25h35v35h-35zM284.28 36.75h35v35h-35zM71.69 144.5h35v35h-35zM389.77 144.5h35v35h-35zM0 1.5h35v35H0zM494.77 0h35v35h-35zM494.77 107.5h35v35h-35zM634.77 73.25h35v35h-35zM669.73.25h35v35h-35zM705.13.25h35v35h-35zM739.73 70.5h35v35h-35zM740.13 145.5h35v35h-35z"/>
  <path class="cls-3" d="M705.13 36h35v35h-35zM669.73 72.5h35v35h-35z"/>
</svg>
